<svg data-name="Layer 1" xmlns="http://www.w3.org/2000/svg" xmlns:xlink="http://www.w3.org/1999/xlink" width="1064.62" height="798.95" viewBox="0 0 1064.62 798.95"><defs><linearGradient id="9ef7ef10-53c7-4b47-a18d-df8c769a82a9-5220" x1="552.67" y1="633.88" x2="552.67" y2="359.93" gradientUnits="userSpaceOnUse"><stop offset="0" stop-color="gray" stop-opacity="0.25"/><stop offset="0.54" stop-color="gray" stop-opacity="0.12"/><stop offset="1" stop-color="gray" stop-opacity="0.1"/></linearGradient><linearGradient id="f123eb9f-f47a-40a3-adfc-57afba59094e-5221" x1="567.66" y1="564.9" x2="567.66" y2="200" xlink:href="#9ef7ef10-53c7-4b47-a18d-df8c769a82a9-5220"/></defs><title>fishing</title><path d="M873.12,477.77l-.8.07.25-.62-1,.41,1-2.63s-3.25,1.31-9.27,3.45C715.49,485.34,406.2,359.93,406.2,359.93L235,383.44a36.06,36.06,0,0,1-2.82-2.95l.76,3.09q-.4-.44-.76-.87l.27,1.08-.27,0,.42.58,19.59,79.46S601.31,656.19,811.42,631.74l59.81-151.16Z" transform="translate(-67.69 -50.53)" fill="url(#9ef7ef10-53c7-4b47-a18d-df8c769a82a9-5220)"/><path d="M411.59,365S723.2,491.32,861.34,478.47L769.25,615.54l-333-103.87L273.45,437.78l76-51.4Z" transform="translate(-67.69 -50.53)" fill="#a076f1"/><path d="M411.59,365S723.2,491.32,861.34,478.47L769.25,615.54l-333-103.87L273.45,437.78l76-51.4Z" transform="translate(-67.69 -50.53)" opacity="0.1"/><polygon points="331.58 352.45 414.57 371.19 245.38 401.17 205.76 365.83 331.58 352.45" fill="#fff" opacity="0.1"/><polygon points="368.52 429.01 466.51 393.14 535.58 416.16 414.57 461.14 368.52 429.01" fill="#fff" opacity="0.1"/><polygon points="503.45 469.7 611.07 440.26 706.91 466.49 605.18 500.76 503.45 469.7" fill="#fff" opacity="0.1"/><polygon points="176.31 337.46 343.9 314.44 343.9 355.13 203.62 375.47 176.31 337.46" fill="#a076f1"/><polygon points="177.38 339.6 343.9 314.44 343.9 355.13 203.62 375.47 177.38 339.6" fill="#fff" opacity="0.1"/><path d="M623.9,251.8s-20.32,40.64-21.77,20.32a32.48,32.48,0,0,0-6.07-16.76,40.13,40.13,0,0,0-14.25-12.26s11.61-21.77,10.16-16c-.74,3,7.61,9.35,16,14.88C615.92,247.29,623.9,251.8,623.9,251.8Z" transform="translate(-67.69 -50.53)" fill="#ffb9b9"/><path d="M528.11,452.1a44.35,44.35,0,0,0,.64,19.65,5.48,5.48,0,0,1-4.94,6.89c-8.89.53-23.68,1.51-30.53,2.49-10.16,1.45-20.32-10.16-8.71-8.71s21.77-11.61,21.77-11.61,13.06-7.26,7.26-49.35c-2.31-16.75-2.09-25.23-1-29.36a6.61,6.61,0,0,1,1.35-2.86s0,0,0,0a2.21,2.21,0,0,1,1.16-.7,3.47,3.47,0,0,1,2.79,1s18.87,17.42,20.32,21.77c.36,1.07.1,3.85-.55,7.61C535.77,420.39,530.3,441.17,528.11,452.1Z" transform="translate(-67.69 -50.53)" fill="#ffb9b9"/><path d="M528.11,452.1a44.35,44.35,0,0,0,.64,19.65,5.48,5.48,0,0,1-4.94,6.89c-8.89.53-23.68,1.51-30.53,2.49-10.16,1.45-20.32-10.16-8.71-8.71s21.77-11.61,21.77-11.61,13.06-7.26,7.26-49.35c-2.31-16.75-2.09-25.23-1-29.36a6.61,6.61,0,0,1,1.35-2.86s0,0,0,0a2.21,2.21,0,0,1,1.16-.7,3.47,3.47,0,0,1,2.79,1s18.87,17.42,20.32,21.77c.36,1.07.1,3.85-.55,7.61C535.77,420.39,530.3,441.17,528.11,452.1Z" transform="translate(-67.69 -50.53)" opacity="0.05"/><path d="M655.84,556.61c-1.45,4.35-52.25,2.9-52.25,2.9-7.26-5.81,10.16-10.16,10.16-10.16,21.77-4.35-1.45-37.74-1.45-37.74L586,471l-5.67-8.78s7.26-10.16,20.32-8.71c3,.33,6.07,2.39,8.94,5.46,9.49,10.1,17.19,31.06,17.19,36.63,0,3.18,2.79,13,5.91,23.09,4.06,13.08,11.79,24.54,21.47,34.21C655.47,554.25,656.2,555.52,655.84,556.61Z" transform="translate(-67.69 -50.53)" fill="#ffb9b9"/><path d="M583.26,347.6s-71.12,29-69.67,31.93,10.16,30.48,21.77,31.93c0,0,7.26-10.16,17.42-8.71s43.54-29,43.54-29l23.22-17.42Z" transform="translate(-67.69 -50.53)" fill="#4c4c78"/><path d="M583.26,347.6s-71.12,29-69.67,31.93,10.16,30.48,21.77,31.93c0,0,7.26-10.16,17.42-8.71s43.54-29,43.54-29l23.22-17.42Z" transform="translate(-67.69 -50.53)" opacity="0.05"/><path d="M610.84,463.71c0,6.05-15.4,7.2-24.81,7.33l-5.67-8.78s7.26-10.16,20.32-8.71c3,.33,6.07,2.39,8.94,5.46C610.28,461.9,610.84,463.71,610.84,463.71Z" transform="translate(-67.69 -50.53)" opacity="0.1"/><path d="M577.46,354.86s-17.42,74-11.61,90,11.61,23.22,11.61,23.22,31.93,1.45,31.93-7.26c0,0-7.26-23.22,0-36.29a47.79,47.79,0,0,0,3.49-7.88,93.76,93.76,0,0,1,15.51-29.13c3.53-4.36,6.23-9.29,5.67-13.79C632.61,362.11,577.46,354.86,577.46,354.86Z" transform="translate(-67.69 -50.53)" fill="#4c4c78"/><path d="M589.07,292.44S571.65,307,570.2,320c0,0-37.74,18.87-47.9,8.71S499.08,336,502,338.89s11.61,8.71,21.77,2.9H564.4s27.58-2.9,29-24.67S589.07,292.44,589.07,292.44Z" transform="translate(-67.69 -50.53)" fill="#ffb9b9"/><path d="M589.07,292.44S571.65,307,570.2,320c0,0-37.74,18.87-47.9,8.71S499.08,336,502,338.89s11.61,8.71,21.77,2.9H564.4s27.58-2.9,29-24.67S589.07,292.44,589.07,292.44Z" transform="translate(-67.69 -50.53)" opacity="0.05"/><path d="M604.31,240.92c-.26.94.39-.87,0,0-2.12,4.8-3.38,12.44-8.24,14.44a40.13,40.13,0,0,0-14.25-12.26s11.61-21.77,10.16-16C591.23,230.09,596,235.39,604.31,240.92Z" transform="translate(-67.69 -50.53)" opacity="0.1"/><path d="M607.21,235.11a20.32,20.32,0,1,1-20.32-20.32A20.19,20.19,0,0,1,607.21,235.11Z" transform="translate(-67.69 -50.53)" fill="#ffb9b9"/><path d="M596.33,267.77l20.32-20.32s29,5.81,30.48,33.38a140.05,140.05,0,0,1-7.26,50.8s-5.81,36.29-4.35,47.9-37.74-17.42-37.74-17.42-31.93,5.81-30.48,1.45,18.87-29,16-37.74c-1.25-3.75-.89-12.06-.07-20.32a86.21,86.21,0,0,1,13.13-37.74Z" transform="translate(-67.69 -50.53)" opacity="0.1"/><path d="M641.32,328.73S635.52,365,637,376.63s-37.74-17.42-37.74-17.42-5,.91-11,1.74c-9.07,1.26-20.36,2.34-19.49-.29a13,13,0,0,1,.83-1.79c3.79-7.16,17.77-28.09,15.14-36-1.25-3.74-.89-12.06-.07-20.32a86.3,86.3,0,0,1,13.14-37.74l20.32-20.32s29,5.81,30.48,33.38A140.05,140.05,0,0,1,641.32,328.73Z" transform="translate(-67.69 -50.53)" fill="#cbcdda"/><path d="M607.21,235.11a20.19,20.19,0,0,1-1.71,8.17,21.29,21.29,0,0,1-4.43-5,81.63,81.63,0,0,0-5.66-7.72,3.86,3.86,0,0,0-1.76-1.38c-1.34-.38-2.7.84-3.08,2.19a12.54,12.54,0,0,0,0,4.17,4.84,4.84,0,0,1-1.09,3.92c-1.73,1.61-4.53.49-6.5-.83s-4.44-2.79-6.53-1.68a6.08,6.08,0,0,0-1.92,1.93,49.56,49.56,0,0,1-5.07,6.68,20.32,20.32,0,1,1,37.74-10.45Z" transform="translate(-67.69 -50.53)" opacity="0.1"/><path d="M614.31,222.78a17.26,17.26,0,0,0-.25-5.51,12.83,12.83,0,0,0-2.21-4.25,25.27,25.27,0,0,0-19-10.06c-2.41-.09-4.81.16-7.22.16-4.43,0-8.86-.86-13.28-.49s-9.08,2.33-11,6.31c-1.22,2.5-1.23,5.5-2.68,7.87-1.67,2.73-4.93,4.12-6.8,6.72a8.42,8.42,0,0,0-1.58,4.89,3.42,3.42,0,0,0,.34,1.65,6.53,6.53,0,0,0,1.62,1.58,6.44,6.44,0,0,1,1.24,7.93,7.76,7.76,0,0,1,6.16,6,2.49,2.49,0,0,0,.52,1.38,1.85,1.85,0,0,0,1,.41c2.91.51,5.87-.93,8-2.95s3.69-4.6,5.4-7a5.93,5.93,0,0,1,1.91-1.93c2.09-1.11,4.55.38,6.52,1.69s4.78,2.43,6.51.81a4.81,4.81,0,0,0,1.09-3.91,12.36,12.36,0,0,1,0-4.17c.38-1.35,1.73-2.57,3.08-2.19a3.79,3.79,0,0,1,1.74,1.39,81,81,0,0,1,5.67,7.72c1.88,2.91,7.5,9.8,10.24,4.09C613.83,235.68,614,228.47,614.31,222.78Z" transform="translate(-67.69 -50.53)" fill="#b96b6b"/><path d="M584,322.2s21.77-1.45,27.58,2.9,29,2.9,29,2.9" transform="translate(-67.69 -50.53)" opacity="0.1"/><path d="M632.61,314.22s-7.26,14.51-7.26,18.87-5.81,10.16-5.81,10.16-16.4,9-31.31,17.71c-9.07,1.26-20.36,2.34-19.49-.29a13,13,0,0,1,.83-1.79c15.47-9.42,36.91-36,36.91-36,0-13.06,7.26-36.29,7.26-36.29s17.42-8.71,23.22,0S632.61,314.22,632.61,314.22Z" transform="translate(-67.69 -50.53)" opacity="0.05"/><path d="M244,384.77l19.27,78.17S599.52,648.2,801.91,624.64l58.9-148.85s-145.16,58.68-299.2,31.7a153,153,0,0,1-17.48-4.17C498.1,489.54,274.71,421.24,244,384.77Z" transform="translate(-67.69 -50.53)" opacity="0.1"/><path d="M244,386.91l19.27,78.17s336.24,185.25,538.63,161.7l58.9-148.85s-145.16,58.68-299.2,31.7a153,153,0,0,1-17.48-4.17C498.1,491.68,274.71,423.38,244,386.91Z" transform="translate(-67.69 -50.53)" fill="#a076f1"/><rect x="460.85" y="153.18" width="7.5" height="278.65" transform="translate(-126.14 408.8) rotate(-49.88)" fill="#535461"/><path d="M610.84,283.74S603.58,307,603.58,320c0,0-30.48,37.74-45,39.19s-23.22,10.16-17.42,13.06,13.06,7.26,21.77,0,53.7-31.93,53.7-31.93,5.81-5.81,5.81-10.16,7.26-18.87,7.26-18.87,10.16-18.87,4.35-27.58S610.84,283.74,610.84,283.74Z" transform="translate(-67.69 -50.53)" fill="#ffb9b9"/><path d="M628.26,260.51s-26.13-2.9-21.77,34.83c0,0,17.42-10.16,31.93,0C638.42,295.35,644.22,267.77,628.26,260.51Z" transform="translate(-67.69 -50.53)" opacity="0.1"/><path d="M628.26,257.61s-26.13-2.9-21.77,34.83c0,0,17.42-10.16,31.93,0C638.42,292.44,644.22,264.87,628.26,257.61Z" transform="translate(-67.69 -50.53)" fill="#cbcdda"/><line x1="296.78" y1="158.86" x2="288.21" y2="589.1" fill="none" stroke="#535461" stroke-miterlimit="10" stroke-width="2"/><path d="M334.49,608.57s-32.12,19.27-11.78,62.11" transform="translate(-67.69 -50.53)" fill="none" stroke="#6c63ff" stroke-miterlimit="10" opacity="0.15"/><path d="M349.48,616.07s-32.12,19.27-11.78,62.11" transform="translate(-67.69 -50.53)" fill="none" stroke="#6c63ff" stroke-miterlimit="10" opacity="0.15"/><path d="M366.61,608.57s32.12,19.27,11.78,62.11" transform="translate(-67.69 -50.53)" fill="none" stroke="#6c63ff" stroke-miterlimit="10" opacity="0.15"/><path d="M354.83,619.28s32.12,19.27,11.78,62.11" transform="translate(-67.69 -50.53)" fill="none" stroke="#6c63ff" stroke-miterlimit="10" opacity="0.15"/></svg>
