<svg data-name="Layer 1" xmlns="http://www.w3.org/2000/svg" width="855.93958" height="630.06608" viewBox="0 0 855.93958 630.06608" xmlns:xlink="http://www.w3.org/1999/xlink"><path d="M935.43234,472.55767c-3.73,43.08-22.51,84.71-49.3,119.14q-1.68,2.16-3.4,4.28-3.87,4.77-7.94,9.36-4.98,5.655-10.25,11.05005-4.29,4.43994-8.78,8.68994-3.465,3.315-7.01,6.5c-28.43,25.69-61.09,46.89-94.74,65.43005-65.67,36.17-137.65,63.56995-212.52,67.56-74.86,3.98-153.01-17.46-207.91-68.52-73.99-68.81-94.63995-183.58-64.6-280.05,19.98-64.18,60.76-122.24,116.26-160.16,55.02-37.59,124.43-54.51,190.12-43.44995,52.44-31.87006,121.09-32.48,178.1-8.89,30.42,12.59,57.72,31.31,81.67,53.93a339.34337,339.34337,0,0,1,30.72,33.23q1.455,1.785,2.88,3.6,5.97,7.545,11.55,15.4,8.01,11.265,15.21,23.03c1.32,2.16,2.63,4.33,3.91,6.52.86,1.47,1.73,2.95,2.58,4.44a.29776.29776,0,0,1,.04.1c13.31,23.41,24.19,48.39,29.86005,74.5,1,4.62,1.84,9.26,2.49,13.94v.01q.855,5.955,1.29,11.97A176.97711,176.97711,0,0,1,935.43234,472.55767Z" transform="translate(-172.03021 -134.96696)" fill="#3f3d56"/><path d="M740.07386,537.68412,591.61233,414.00627,735.84027,542.638a3.44161,3.44161,0,1,0,4.23359-4.95386Z" transform="translate(-172.03021 -134.96696)" fill="#f0f0f0" opacity="0.3"/><circle cx="227.58212" cy="250.78071" r="89" fill="#f2f2f2"/><path d="M478.61233,379.74767a80.99369,80.99369,0,0,1-81,81,81.57161,81.57161,0,0,1-27.8-4.9,81.05489,81.05489,0,1,1,108.8-76.1Z" transform="translate(-172.03021 -134.96696)" fill="#fff"/><circle cx="211.58212" cy="217.78071" r="25" fill="#e4e4e4"/><path d="M475.45236,357.27764a25.00115,25.00115,0,0,1-27.6-41.08A81.05279,81.05279,0,0,1,475.45236,357.27764Z" transform="translate(-172.03021 -134.96696)" fill="#f2f2f2"/><circle cx="252.58212" cy="271.78071" r="9" fill="#e4e4e4"/><path d="M387.61233,457.74767a9.04581,9.04581,0,0,1-.31,2.34,79.52774,79.52774,0,0,1-17.49-4.24,9.00157,9.00157,0,0,1,17.8,1.9Z" transform="translate(-172.03021 -134.96696)" fill="#f2f2f2"/><path d="M334.61233,375.74767a18.002,18.002,0,0,1-16.8,17.96,81.54773,81.54773,0,0,1,1.76-35.71A18.00026,18.00026,0,0,1,334.61233,375.74767Z" transform="translate(-172.03021 -134.96696)" fill="#f2f2f2"/><circle cx="606.45653" cy="208.48305" r="3.70234" fill="#a076f1"/><circle cx="572.30231" cy="119.94851" r="2.16307" fill="#f0f0f0"/><circle cx="225.30231" cy="543.94851" r="2.16307" fill="#f0f0f0"/><circle cx="584.58144" cy="331.59402" r="2.16307" fill="#f0f0f0"/><circle cx="305.45653" cy="350.48305" r="3.70234" fill="#a076f1"/><circle cx="171.45653" cy="416.48305" r="17.48305" fill="#a076f1"/><circle cx="267.30231" cy="435.94851" r="2.16307" fill="#f0f0f0"/><circle cx="487.30231" cy="97.94851" r="2.16307" fill="#f0f0f0"/><circle cx="358.30231" cy="558.94851" r="2.16307" fill="#f0f0f0"/><circle cx="326.30231" cy="117.94851" r="2.16307" fill="#f0f0f0"/><circle cx="382.30231" cy="222.94851" r="2.16307" fill="#f0f0f0"/><circle cx="296.58144" cy="480.59402" r="2.16307" fill="#f0f0f0"/><circle cx="549.58144" cy="494.59402" r="2.16307" fill="#f0f0f0"/><circle cx="437.58144" cy="368.59402" r="2.16307" fill="#f0f0f0"/><circle cx="494.58144" cy="222.59402" r="2.16307" fill="#f0f0f0"/><circle cx="598.21204" cy="292.65473" r="4.28889" fill="#ff6584"/><circle cx="424.21204" cy="150.65473" r="4.28889" fill="#ff6584"/><circle cx="424.21204" cy="445.65473" r="4.28889" fill="#ff6584"/><path d="M863.45236,605.33764a7.694,7.694,0,0,0-7.39,5.58,7.3896,7.3896,0,0,0-.3,2.12v12.04q4.485-4.24494,8.78-8.68994,5.265-5.40006,10.25-11.05005Z" transform="translate(-172.03021 -134.96696)" fill="#a076f1"/><path d="M890.68118,667.89806q-19.36816,0-42.45654-1.46386c-79.61377-5.05567-182.7378-22.63282-290.376-49.49219-107.6377-26.85938-206.93018-59.79395-279.58545-92.73438-35.39258-16.04687-62.55615-31.23632-80.73535-45.14746-19.24707-14.72705-27.666-27.564-25.02393-38.15283,5.148-20.62891,50.731-25.14209,88.064-25.29541l.01269,3c-51.26806.21045-81.51367,8.38672-85.16552,23.022-4.65186,18.64014,33.28662,47.74073,104.08691,79.84131,72.49561,32.86817,171.60547,65.73926,279.07324,92.55664,107.46729,26.81641,210.40137,44.36328,289.83985,49.40821,77.57861,4.92773,124.74316-2.9375,129.39453-21.57813,3.86181-15.47656-21.59815-38.27539-71.68946-64.19824l1.37891-2.66406c36.397,18.83593,78.64551,45.85156,73.22168,67.58886-2.64258,10.58887-16.10547,17.96485-40.01514,21.92285C927.0762,666.7672,910.33548,667.89806,890.68118,667.89806Z" transform="translate(-172.03021 -134.96696)" fill="#a076f1"/><circle cx="838.45653" cy="434.48305" r="17.48305" fill="#a076f1"/><circle cx="331.45653" cy="17.48305" r="17.48305" fill="#e6e6e6"/><circle cx="19.45653" cy="433.48305" r="17.48305" fill="#e6e6e6"/><circle cx="127.45653" cy="108.48305" r="10.70234" fill="#ff6584"/><circle cx="77.45653" cy="514.48305" r="10.70234" fill="#ff6584"/><circle cx="807.45653" cy="339.48305" r="10.70234" fill="#ff6584"/><circle cx="645.45653" cy="598.48305" r="17.48305" fill="#e6e6e6"/></svg>
